<svg width="20" height="25" viewBox="0 0 20 25" fill="none" xmlns="http://www.w3.org/2000/svg">
<g clip-path="url(#clip0_351_13847)">
<path fill-rule="evenodd" clip-rule="evenodd" d="M5.9375 2.27269C5.07455 2.27269 4.375 3.12062 4.375 4.16661C4.375 5.21259 5.07455 6.06052 5.9375 6.06052H8.82343C8.53224 4.82181 8.14577 3.9377 7.7257 3.34365C7.18815 2.58349 6.58264 2.27269 5.9375 2.27269ZM2.5 4.16661C2.5 4.84858 2.63517 5.4923 2.87481 6.06052H2.1875C0.979378 6.06052 0 7.24762 0 8.71199V11.7423C0 12.8 0.510954 13.713 1.25 14.1386V21.5906C1.25 23.055 2.22938 24.2421 3.4375 24.2421H16.5625C17.7706 24.2421 18.75 23.055 18.75 21.5906V14.1386C19.489 13.713 20 12.8 20 11.7423V8.71199C20 7.24762 19.0206 6.06052 17.8125 6.06052H17.1251C17.3649 5.4923 17.5 4.84858 17.5 4.16661C17.5 1.86546 15.961 0 14.0625 0C12.8326 0 11.7194 0.63615 10.8507 1.86461C10.5309 2.31678 10.2472 2.84425 10 3.44395C9.75284 2.84425 9.46906 2.31678 9.1493 1.86461C8.2806 0.63615 7.16736 0 5.9375 0C4.03902 0 2.5 1.86546 2.5 4.16661ZM11.1766 6.06052H14.0625C14.9255 6.06052 15.625 5.21259 15.625 4.16661C15.625 3.12062 14.9255 2.27269 14.0625 2.27269C13.4174 2.27269 12.8119 2.58349 12.2743 3.34365C11.8542 3.9377 11.4678 4.82181 11.1766 6.06052ZM2.1875 8.33321C2.01491 8.33321 1.875 8.5028 1.875 8.71199V11.7423C1.875 11.9514 2.01491 12.121 2.1875 12.121H9.0625V8.33321H2.1875ZM10.9375 8.33321V12.121H17.8125C17.9851 12.121 18.125 11.9514 18.125 11.7423V8.71199C18.125 8.5028 17.9851 8.33321 17.8125 8.33321H10.9375ZM10.9375 14.3937H16.875V21.5906C16.875 21.7998 16.7351 21.9694 16.5625 21.9694H10.9375V14.3937ZM9.0625 14.3937V21.9694H3.4375C3.26491 21.9694 3.125 21.7998 3.125 21.5906V14.3937H9.0625Z" fill="white"/>
</g>
<defs>
<clipPath id="clip0_351_13847">
<rect width="20" height="24.2421" fill="white"/>
</clipPath>
</defs>
</svg>
