<svg width="24" height="30" viewBox="0 0 24 30" fill="none" xmlns="http://www.w3.org/2000/svg">
<path fill-rule="evenodd" clip-rule="evenodd" d="M12.2917 2.88885C12.1052 2.7934 11.8948 2.7934 11.7083 2.88885L0.458271 8.64634C0.180526 8.78849 0 9.1184 0 9.48383C0 9.84926 0.180526 10.1792 0.458271 10.3213L4.25 12.2618V16.8722C3.76381 17.025 3.30237 17.3296 2.9228 17.7897C2.34402 18.4912 2 19.4991 2 20.7335V26.188C2 26.4902 2.12795 26.7782 2.33509 26.9453C2.39421 26.9928 2.45249 27.0336 2.55517 27.0958C2.67876 27.1707 2.85216 27.2633 3.07529 27.3535C3.52261 27.5343 4.1651 27.7032 5 27.7032C5.83487 27.7032 6.47733 27.5343 6.92463 27.3536C7.14776 27.2635 7.32115 27.1709 7.44474 27.096C7.54157 27.0373 7.59819 26.9971 7.65465 26.9537C7.86613 26.7868 8 26.4949 8 26.1882V20.7337C8 19.4993 7.65599 18.4913 7.07721 17.7898C6.69764 17.3297 6.2362 17.0251 5.75 16.8723V13.0295L11.7083 16.0788C11.8948 16.1743 12.1052 16.1743 12.2917 16.0788L17.5 13.4133V18.2645C17.4774 18.2954 17.4512 18.3297 17.4213 18.367C17.2597 18.5684 16.9876 18.858 16.572 19.1553C15.7458 19.7463 14.3174 20.3928 12 20.3928C11.388 20.3928 10.8384 20.3476 10.346 20.2706C9.93522 20.2063 9.55922 20.5579 9.50619 21.0558C9.45317 21.5538 9.74321 22.0095 10.154 22.0738C10.7132 22.1613 11.3271 22.2109 12 22.2109C14.5576 22.2109 16.2543 21.4937 17.3343 20.7211C17.8718 20.3366 18.2481 19.9444 18.4968 19.6344C18.6402 19.4556 18.7814 19.2635 18.8894 19.0499L18.89 19.0486C18.9619 18.9059 19 18.7419 19 18.5746V12.6457L23.5417 10.3213C23.8195 10.1792 24 9.84926 24 9.48383C24 9.1184 23.8195 8.78849 23.5417 8.64634L12.2917 2.88885ZM4.99993 18.5746C4.99992 18.5746 4.99995 18.5746 4.99993 18.5746C4.62297 18.5746 4.25546 18.7457 3.98345 19.0753C3.71848 19.3965 3.5 19.9226 3.5 20.7335V25.608C3.7989 25.7356 4.29726 25.8851 5 25.8851C5.70271 25.8851 6.20108 25.7357 6.5 25.6081V20.7337C6.5 19.9228 6.28151 19.3966 6.01654 19.0754C5.74451 18.7457 5.37691 18.5746 4.99993 18.5746ZM12 14.2545L2.67816 9.48383L12 4.71313L21.3218 9.48383L12 14.2545Z" fill="#24292E"/>
</svg>
