<svg width="33" height="33" viewBox="0 0 33 33" fill="none" xmlns="http://www.w3.org/2000/svg">
<path fill-rule="evenodd" clip-rule="evenodd" d="M4.125 4.46875C4.125 3.13981 5.20232 2.0625 6.53125 2.0625H14.0938C14.6633 2.0625 15.125 2.52421 15.125 3.09375C15.125 3.66329 14.6633 4.125 14.0938 4.125H6.53125C6.3414 4.125 6.1875 4.2789 6.1875 4.46875V28.5312C6.1875 28.7211 6.3414 28.875 6.53125 28.875H14.0938C14.6633 28.875 15.125 29.3367 15.125 29.9062C15.125 30.4758 14.6633 30.9375 14.0938 30.9375H6.53125C5.20231 30.9375 4.125 29.8602 4.125 28.5312V4.46875ZM17.8663 17.5312L22.4049 22.322C22.7966 22.7355 22.7789 23.3882 22.3655 23.7799C21.952 24.1716 21.2993 24.154 20.9076 23.7405L14.7201 17.2092C14.3433 16.8115 14.3433 16.1885 14.7201 15.7908L20.9076 9.25952C21.2993 8.84605 21.952 8.82841 22.3655 9.22011C22.7789 9.61181 22.7966 10.2645 22.4049 10.678L17.8663 15.4688H29.2188C29.7883 15.4688 30.25 15.9305 30.25 16.5C30.25 17.0695 29.7883 17.5312 29.2188 17.5312H17.8663Z" fill="#9747FF"/>
</svg>
